<mxfile host="65bd71144e">
    <diagram id="kjqwGB3sROxfLEOw5SlI" name="User">
        <mxGraphModel dx="762" dy="934" grid="1" gridSize="10" guides="1" tooltips="1" connect="1" arrows="1" fold="1" page="1" pageScale="1" pageWidth="3300" pageHeight="4681" math="0" shadow="0">
            <root>
                <mxCell id="0"/>
                <mxCell id="1" parent="0"/>
                <mxCell id="2Hx9XVn4vdOJaAWrTyBz-1" value="User" style="swimlane;fontStyle=1;align=center;verticalAlign=middle;childLayout=stackLayout;horizontal=1;startSize=29;horizontalStack=0;resizeParent=1;resizeParentMax=0;resizeLast=0;collapsible=0;marginBottom=0;html=1;" parent="1" vertex="1">
                    <mxGeometry x="290" y="480" width="140" height="54" as="geometry"/>
                </mxCell>
                <mxCell id="2Hx9XVn4vdOJaAWrTyBz-2" value="stereotype property 1" style="text;html=1;strokeColor=none;fillColor=none;align=left;verticalAlign=middle;spacingLeft=4;spacingRight=4;overflow=hidden;rotatable=0;points=[[0,0.5],[1,0.5]];portConstraint=eastwest;" parent="2Hx9XVn4vdOJaAWrTyBz-1" vertex="1">
                    <mxGeometry y="29" width="140" height="25" as="geometry"/>
                </mxCell>
                <mxCell id="r6K45a8AbU5zm_etBLaT-1" value="&lt;span style=&quot;color: rgb(135, 195, 255); font-family: Consolas, &amp;quot;Courier New&amp;quot;, monospace; font-size: 14px; font-weight: 400; background-color: rgb(24, 24, 24);&quot;&gt;UserWithoutDetails&lt;/span&gt;" style="swimlane;fontStyle=1;align=center;verticalAlign=middle;childLayout=stackLayout;horizontal=1;startSize=29;horizontalStack=0;resizeParent=1;resizeParentMax=0;resizeLast=0;collapsible=0;marginBottom=0;html=1;" parent="1" vertex="1">
                    <mxGeometry x="280" y="290" width="140" height="90" as="geometry"/>
                </mxCell>
                <mxCell id="r6K45a8AbU5zm_etBLaT-2" value="&amp;lt;&amp;lt;&amp;gt;&amp;gt;" style="text;html=1;strokeColor=none;fillColor=none;align=center;verticalAlign=middle;spacingLeft=4;spacingRight=4;overflow=hidden;rotatable=0;points=[[0,0.5],[1,0.5]];portConstraint=eastwest;" parent="r6K45a8AbU5zm_etBLaT-1" vertex="1">
                    <mxGeometry y="29" width="140" height="25" as="geometry"/>
                </mxCell>
                <mxCell id="r6K45a8AbU5zm_etBLaT-3" value="Id&lt;br&gt;&lt;div style=&quot;color: rgb(214, 214, 221); background-color: rgb(24, 24, 24); font-family: Consolas, &amp;quot;Courier New&amp;quot;, monospace; font-size: 14px; line-height: 19px;&quot;&gt;UserName&lt;/div&gt;" style="text;html=1;strokeColor=none;fillColor=none;align=left;verticalAlign=middle;spacingLeft=4;spacingRight=4;overflow=hidden;rotatable=0;points=[[0,0.5],[1,0.5]];portConstraint=eastwest;" parent="r6K45a8AbU5zm_etBLaT-1" vertex="1">
                    <mxGeometry y="54" width="140" height="36" as="geometry"/>
                </mxCell>
            </root>
        </mxGraphModel>
    </diagram>
    <diagram id="a_t1gDNRHsaz_FpNm2xl" name="Organization">
        <mxGraphModel dx="762" dy="934" grid="1" gridSize="10" guides="1" tooltips="1" connect="1" arrows="1" fold="1" page="1" pageScale="1" pageWidth="3300" pageHeight="4681" math="0" shadow="0">
            <root>
                <mxCell id="0"/>
                <mxCell id="1" parent="0"/>
                <mxCell id="19" value="&lt;div style=&quot;color: rgb(214, 214, 221); background-color: rgb(24, 24, 24); font-family: Consolas, &amp;quot;Courier New&amp;quot;, monospace; font-weight: normal; font-size: 14px; line-height: 19px;&quot;&gt;&lt;span style=&quot;color: #87c3ff;&quot;&gt;OrganizationMembershipManager&lt;/span&gt;&lt;/div&gt;" style="swimlane;fontStyle=1;align=center;verticalAlign=middle;childLayout=stackLayout;horizontal=1;startSize=29;horizontalStack=0;resizeParent=1;resizeParentMax=0;resizeLast=0;collapsible=0;marginBottom=0;html=1;" parent="1" vertex="1">
                    <mxGeometry x="610" y="350" width="160" height="80" as="geometry"/>
                </mxCell>
                <mxCell id="20" value="&lt;div style=&quot;color: rgb(214, 214, 221); background-color: rgb(24, 24, 24); font-family: Consolas, &amp;quot;Courier New&amp;quot;, monospace; font-size: 14px; line-height: 19px;&quot;&gt;&lt;span style=&quot;color: #efb080;&quot;&gt;JoinAsync&lt;/span&gt;&lt;/div&gt;&lt;div style=&quot;color: rgb(214, 214, 221); background-color: rgb(24, 24, 24); font-family: Consolas, &amp;quot;Courier New&amp;quot;, monospace; font-size: 14px; line-height: 19px;&quot;&gt;&lt;div style=&quot;line-height: 19px;&quot;&gt;&lt;span style=&quot;color: #efb080;&quot;&gt;IsJoinedAsync&lt;/span&gt;&lt;/div&gt;&lt;/div&gt;" style="text;html=1;strokeColor=none;fillColor=none;align=left;verticalAlign=middle;spacingLeft=4;spacingRight=4;overflow=hidden;rotatable=0;points=[[0,0.5],[1,0.5]];portConstraint=eastwest;" parent="19" vertex="1">
                    <mxGeometry y="29" width="160" height="51" as="geometry"/>
                </mxCell>
                <mxCell id="xOTYMeT0zOCIHmv7LB-7-32" value="&lt;span style=&quot;color: rgb(135, 195, 255); font-family: Consolas, &amp;quot;Courier New&amp;quot;, monospace; font-size: 14px; font-weight: 400; background-color: rgb(24, 24, 24);&quot;&gt;OrganizationManager&lt;/span&gt;" style="swimlane;fontStyle=1;align=center;verticalAlign=middle;childLayout=stackLayout;horizontal=1;startSize=29;horizontalStack=0;resizeParent=1;resizeParentMax=0;resizeLast=0;collapsible=0;marginBottom=0;html=1;" parent="1" vertex="1">
                    <mxGeometry x="360" y="351" width="140" height="79" as="geometry"/>
                </mxCell>
                <mxCell id="xOTYMeT0zOCIHmv7LB-7-33" value="&amp;lt;&amp;lt;&lt;span style=&quot;color: rgb(239, 176, 128); background-color: rgb(24, 24, 24); font-family: Consolas, &amp;quot;Courier New&amp;quot;, monospace; font-size: 14px;&quot;&gt;DomainService&lt;/span&gt;&lt;span style=&quot;background-color: initial;&quot;&gt;&amp;gt;&amp;gt;&lt;/span&gt;" style="text;html=1;strokeColor=none;fillColor=none;align=center;verticalAlign=middle;spacingLeft=4;spacingRight=4;overflow=hidden;rotatable=0;points=[[0,0.5],[1,0.5]];portConstraint=eastwest;" parent="xOTYMeT0zOCIHmv7LB-7-32" vertex="1">
                    <mxGeometry y="29" width="140" height="25" as="geometry"/>
                </mxCell>
                <mxCell id="xOTYMeT0zOCIHmv7LB-7-34" value="&lt;span style=&quot;color: rgb(239, 176, 128); font-family: Consolas, &amp;quot;Courier New&amp;quot;, monospace; font-size: 14px; background-color: rgb(24, 24, 24);&quot;&gt;CreateAsync&lt;/span&gt;" style="text;html=1;strokeColor=none;fillColor=none;align=left;verticalAlign=middle;spacingLeft=4;spacingRight=4;overflow=hidden;rotatable=0;points=[[0,0.5],[1,0.5]];portConstraint=eastwest;" parent="xOTYMeT0zOCIHmv7LB-7-32" vertex="1">
                    <mxGeometry y="54" width="140" height="25" as="geometry"/>
                </mxCell>
                <mxCell id="xOTYMeT0zOCIHmv7LB-7-35" value="&lt;span style=&quot;color: rgb(239, 176, 128); font-family: Consolas, &amp;quot;Courier New&amp;quot;, monospace; font-size: 14px; font-weight: 400; background-color: rgb(24, 24, 24);&quot;&gt;Organization&lt;/span&gt;" style="swimlane;fontStyle=1;align=center;verticalAlign=middle;childLayout=stackLayout;horizontal=1;startSize=29;horizontalStack=0;resizeParent=1;resizeParentMax=0;resizeLast=0;collapsible=0;marginBottom=0;html=1;" parent="1" vertex="1">
                    <mxGeometry x="320" y="650" width="240" height="100" as="geometry"/>
                </mxCell>
                <mxCell id="xOTYMeT0zOCIHmv7LB-7-36" value="&amp;lt;&amp;lt;&lt;span style=&quot;font-family: Consolas, &amp;quot;Courier New&amp;quot;, monospace; font-size: 14px; color: rgb(239, 176, 128);&quot;&gt;FullAuditedAggregateRoot&lt;/span&gt;&lt;span style=&quot;background-color: rgb(24, 24, 24); color: rgb(214, 214, 221); font-family: Consolas, &amp;quot;Courier New&amp;quot;, monospace; font-size: 14px;&quot;&gt;&amp;lt;&lt;/span&gt;&lt;span style=&quot;font-family: Consolas, &amp;quot;Courier New&amp;quot;, monospace; font-size: 14px; color: rgb(239, 176, 128);&quot;&gt;Guid&lt;/span&gt;&lt;span style=&quot;background-color: rgb(24, 24, 24); color: rgb(214, 214, 221); font-family: Consolas, &amp;quot;Courier New&amp;quot;, monospace; font-size: 14px;&quot;&gt;&amp;gt;&lt;/span&gt;&lt;span style=&quot;background-color: initial;&quot;&gt;&amp;gt;&amp;gt;&lt;/span&gt;" style="text;html=1;strokeColor=none;fillColor=none;align=center;verticalAlign=middle;spacingLeft=4;spacingRight=4;overflow=hidden;rotatable=0;points=[[0,0.5],[1,0.5]];portConstraint=eastwest;" parent="xOTYMeT0zOCIHmv7LB-7-35" vertex="1">
                    <mxGeometry y="29" width="240" height="25" as="geometry"/>
                </mxCell>
                <mxCell id="xOTYMeT0zOCIHmv7LB-7-37" value="&lt;div style=&quot;color: rgb(214, 214, 221); font-family: Consolas, &amp;quot;Courier New&amp;quot;, monospace; font-size: 14px; line-height: 19px;&quot;&gt;&lt;span style=&quot;color: rgb(239, 176, 128);&quot;&gt;Guid&lt;/span&gt;&amp;nbsp;OwnerUserId&lt;/div&gt;&lt;div style=&quot;color: rgb(214, 214, 221); font-family: Consolas, &amp;quot;Courier New&amp;quot;, monospace; font-size: 14px; line-height: 19px;&quot;&gt;&lt;div style=&quot;line-height: 19px;&quot;&gt;&lt;span style=&quot;color: rgb(239, 176, 128);&quot;&gt;OrganizationPlanType&lt;/span&gt;&amp;nbsp;PlanType&lt;/div&gt;&lt;/div&gt;" style="text;html=1;strokeColor=none;fillColor=none;align=left;verticalAlign=middle;spacingLeft=4;spacingRight=4;overflow=hidden;rotatable=0;points=[[0,0.5],[1,0.5]];portConstraint=eastwest;" parent="xOTYMeT0zOCIHmv7LB-7-35" vertex="1">
                    <mxGeometry y="54" width="240" height="46" as="geometry"/>
                </mxCell>
                <mxCell id="xOTYMeT0zOCIHmv7LB-7-38" value="&lt;span style=&quot;color: rgb(135, 195, 255); font-family: Consolas, &amp;quot;Courier New&amp;quot;, monospace; font-size: 14px; font-weight: 400; background-color: rgb(24, 24, 24);&quot;&gt;OrganizationMembershipChangedEventHandler&lt;/span&gt;" style="swimlane;fontStyle=1;align=center;verticalAlign=middle;childLayout=stackLayout;horizontal=1;startSize=29;horizontalStack=0;resizeParent=1;resizeParentMax=0;resizeLast=0;collapsible=0;marginBottom=0;html=1;" parent="1" vertex="1">
                    <mxGeometry x="290" y="500" width="280" height="79" as="geometry"/>
                </mxCell>
                <mxCell id="xOTYMeT0zOCIHmv7LB-7-39" value="&amp;lt;&amp;lt;&lt;span style=&quot;color: rgb(239, 176, 128); background-color: rgb(24, 24, 24); font-family: Consolas, &amp;quot;Courier New&amp;quot;, monospace; font-size: 14px;&quot;&gt;ITransientDependency&lt;/span&gt;&lt;span style=&quot;background-color: initial;&quot;&gt;&amp;gt;&amp;gt;&lt;/span&gt;" style="text;html=1;strokeColor=none;fillColor=none;align=center;verticalAlign=middle;spacingLeft=4;spacingRight=4;overflow=hidden;rotatable=0;points=[[0,0.5],[1,0.5]];portConstraint=eastwest;" parent="xOTYMeT0zOCIHmv7LB-7-38" vertex="1">
                    <mxGeometry y="29" width="280" height="25" as="geometry"/>
                </mxCell>
                <mxCell id="xOTYMeT0zOCIHmv7LB-7-40" value="stereotype property 1" style="text;html=1;strokeColor=none;fillColor=none;align=left;verticalAlign=middle;spacingLeft=4;spacingRight=4;overflow=hidden;rotatable=0;points=[[0,0.5],[1,0.5]];portConstraint=eastwest;" parent="xOTYMeT0zOCIHmv7LB-7-38" vertex="1">
                    <mxGeometry y="54" width="280" height="25" as="geometry"/>
                </mxCell>
                <mxCell id="xOTYMeT0zOCIHmv7LB-7-41" value="&lt;span style=&quot;color: rgb(135, 195, 255); font-family: Consolas, &amp;quot;Courier New&amp;quot;, monospace; font-size: 14px; font-weight: 400; background-color: rgb(24, 24, 24);&quot;&gt;OrganizationMembership&lt;/span&gt;" style="swimlane;fontStyle=1;align=center;verticalAlign=middle;childLayout=stackLayout;horizontal=1;startSize=29;horizontalStack=0;resizeParent=1;resizeParentMax=0;resizeLast=0;collapsible=0;marginBottom=0;html=1;" parent="1" vertex="1">
                    <mxGeometry x="630" y="650" width="190" height="100" as="geometry"/>
                </mxCell>
                <mxCell id="xOTYMeT0zOCIHmv7LB-7-42" value="&amp;lt;&amp;lt;&lt;span style=&quot;font-family: Consolas, &amp;quot;Courier New&amp;quot;, monospace; font-size: 14px; color: rgb(239, 176, 128);&quot;&gt;CreationAuditedAggregateRoot&lt;/span&gt;&lt;span style=&quot;background-color: rgb(24, 24, 24); color: rgb(214, 214, 221); font-family: Consolas, &amp;quot;Courier New&amp;quot;, monospace; font-size: 14px;&quot;&gt;&amp;lt;&lt;/span&gt;&lt;span style=&quot;font-family: Consolas, &amp;quot;Courier New&amp;quot;, monospace; font-size: 14px; color: rgb(239, 176, 128);&quot;&gt;Guid&lt;/span&gt;&lt;span style=&quot;background-color: rgb(24, 24, 24); color: rgb(214, 214, 221); font-family: Consolas, &amp;quot;Courier New&amp;quot;, monospace; font-size: 14px;&quot;&gt;&amp;gt;&lt;/span&gt;&lt;span style=&quot;background-color: initial;&quot;&gt;&amp;gt;&amp;gt;&lt;/span&gt;" style="text;html=1;strokeColor=none;fillColor=none;align=center;verticalAlign=middle;spacingLeft=4;spacingRight=4;overflow=hidden;rotatable=0;points=[[0,0.5],[1,0.5]];portConstraint=eastwest;" parent="xOTYMeT0zOCIHmv7LB-7-41" vertex="1">
                    <mxGeometry y="29" width="190" height="25" as="geometry"/>
                </mxCell>
                <mxCell id="xOTYMeT0zOCIHmv7LB-7-43" value="&lt;div style=&quot;color: rgb(214, 214, 221); background-color: rgb(24, 24, 24); font-family: Consolas, &amp;quot;Courier New&amp;quot;, monospace; font-size: 14px; line-height: 19px;&quot;&gt;OrganizationId&lt;/div&gt;&lt;div style=&quot;color: rgb(214, 214, 221); background-color: rgb(24, 24, 24); font-family: Consolas, &amp;quot;Courier New&amp;quot;, monospace; font-size: 14px; line-height: 19px;&quot;&gt;&lt;div style=&quot;line-height: 19px;&quot;&gt;UserId&lt;/div&gt;&lt;/div&gt;" style="text;html=1;strokeColor=none;fillColor=none;align=left;verticalAlign=middle;spacingLeft=4;spacingRight=4;overflow=hidden;rotatable=0;points=[[0,0.5],[1,0.5]];portConstraint=eastwest;" parent="xOTYMeT0zOCIHmv7LB-7-41" vertex="1">
                    <mxGeometry y="54" width="190" height="46" as="geometry"/>
                </mxCell>
                <mxCell id="xOTYMeT0zOCIHmv7LB-7-44" value="&lt;span style=&quot;color: rgb(135, 195, 255); font-family: Consolas, &amp;quot;Courier New&amp;quot;, monospace; font-size: 14px; font-weight: 400; background-color: rgb(24, 24, 24);&quot;&gt;OrganizationMemberWithDetails&lt;/span&gt;" style="swimlane;fontStyle=1;align=center;verticalAlign=middle;childLayout=stackLayout;horizontal=1;startSize=29;horizontalStack=0;resizeParent=1;resizeParentMax=0;resizeLast=0;collapsible=0;marginBottom=0;html=1;" parent="1" vertex="1">
                    <mxGeometry x="635" y="517.5" width="180" height="79" as="geometry"/>
                </mxCell>
                <mxCell id="xOTYMeT0zOCIHmv7LB-7-45" value="&amp;lt;&amp;lt;&lt;span style=&quot;font-family: Consolas, &amp;quot;Courier New&amp;quot;, monospace; font-size: 14px; color: rgb(239, 176, 128);&quot;&gt;Entity&lt;/span&gt;&lt;span style=&quot;background-color: rgb(24, 24, 24); color: rgb(214, 214, 221); font-family: Consolas, &amp;quot;Courier New&amp;quot;, monospace; font-size: 14px;&quot;&gt;&amp;lt;&lt;/span&gt;&lt;span style=&quot;font-family: Consolas, &amp;quot;Courier New&amp;quot;, monospace; font-size: 14px; color: rgb(239, 176, 128);&quot;&gt;Guid&lt;/span&gt;&lt;span style=&quot;background-color: rgb(24, 24, 24); color: rgb(214, 214, 221); font-family: Consolas, &amp;quot;Courier New&amp;quot;, monospace; font-size: 14px;&quot;&gt;&amp;gt;&lt;/span&gt;&lt;span style=&quot;background-color: initial;&quot;&gt;&amp;gt;&amp;gt;&lt;/span&gt;" style="text;html=1;strokeColor=none;fillColor=none;align=center;verticalAlign=middle;spacingLeft=4;spacingRight=4;overflow=hidden;rotatable=0;points=[[0,0.5],[1,0.5]];portConstraint=eastwest;" parent="xOTYMeT0zOCIHmv7LB-7-44" vertex="1">
                    <mxGeometry y="29" width="180" height="25" as="geometry"/>
                </mxCell>
                <mxCell id="xOTYMeT0zOCIHmv7LB-7-46" value="stereotype property 1" style="text;html=1;strokeColor=none;fillColor=none;align=left;verticalAlign=middle;spacingLeft=4;spacingRight=4;overflow=hidden;rotatable=0;points=[[0,0.5],[1,0.5]];portConstraint=eastwest;" parent="xOTYMeT0zOCIHmv7LB-7-44" vertex="1">
                    <mxGeometry y="54" width="180" height="25" as="geometry"/>
                </mxCell>
                <mxCell id="xOTYMeT0zOCIHmv7LB-7-48" value="&lt;span style=&quot;color: rgb(239, 176, 128); font-family: Consolas, &amp;quot;Courier New&amp;quot;, monospace; font-size: 14px; font-weight: 400; background-color: rgb(24, 24, 24);&quot;&gt;IOrganizationMembershipRepository&lt;/span&gt;" style="swimlane;fontStyle=1;align=center;verticalAlign=middle;childLayout=stackLayout;horizontal=1;startSize=29;horizontalStack=0;resizeParent=1;resizeParentMax=0;resizeLast=0;collapsible=0;marginBottom=0;html=1;" parent="1" vertex="1">
                    <mxGeometry x="520" y="950" width="140" height="79" as="geometry"/>
                </mxCell>
                <mxCell id="xOTYMeT0zOCIHmv7LB-7-49" value="&amp;lt;&amp;lt;&lt;span style=&quot;font-family: Consolas, &amp;quot;Courier New&amp;quot;, monospace; font-size: 14px; color: rgb(239, 176, 128);&quot;&gt;IRepository&lt;/span&gt;&lt;span style=&quot;background-color: rgb(24, 24, 24); color: rgb(214, 214, 221); font-family: Consolas, &amp;quot;Courier New&amp;quot;, monospace; font-size: 14px;&quot;&gt;&amp;lt;&lt;/span&gt;&lt;span style=&quot;font-family: Consolas, &amp;quot;Courier New&amp;quot;, monospace; font-size: 14px; color: rgb(239, 176, 128);&quot;&gt;OrganizationMembership&lt;/span&gt;&lt;span style=&quot;background-color: rgb(24, 24, 24); color: rgb(214, 214, 221); font-family: Consolas, &amp;quot;Courier New&amp;quot;, monospace; font-size: 14px;&quot;&gt;, &lt;/span&gt;&lt;span style=&quot;font-family: Consolas, &amp;quot;Courier New&amp;quot;, monospace; font-size: 14px; color: rgb(239, 176, 128);&quot;&gt;Guid&lt;/span&gt;&lt;span style=&quot;background-color: rgb(24, 24, 24); color: rgb(214, 214, 221); font-family: Consolas, &amp;quot;Courier New&amp;quot;, monospace; font-size: 14px;&quot;&gt;&amp;gt;&lt;/span&gt;&lt;span style=&quot;background-color: initial;&quot;&gt;&amp;gt;&amp;gt;&lt;/span&gt;" style="text;html=1;strokeColor=none;fillColor=none;align=center;verticalAlign=middle;spacingLeft=4;spacingRight=4;overflow=hidden;rotatable=0;points=[[0,0.5],[1,0.5]];portConstraint=eastwest;" parent="xOTYMeT0zOCIHmv7LB-7-48" vertex="1">
                    <mxGeometry y="29" width="140" height="25" as="geometry"/>
                </mxCell>
                <mxCell id="xOTYMeT0zOCIHmv7LB-7-50" value="&lt;div style=&quot;color: rgb(214, 214, 221); background-color: rgb(24, 24, 24); font-family: Consolas, &amp;quot;Courier New&amp;quot;, monospace; font-size: 14px; line-height: 19px;&quot;&gt;&lt;span style=&quot;color: rgb(239, 176, 128);&quot;&gt;GetMemberListAsync&lt;/span&gt;&lt;/div&gt;&lt;div&gt;&lt;span style=&quot;color: rgb(239, 176, 128);&quot;&gt;&lt;br&gt;&lt;/span&gt;&lt;/div&gt;" style="text;html=1;strokeColor=none;fillColor=none;align=left;verticalAlign=middle;spacingLeft=4;spacingRight=4;overflow=hidden;rotatable=0;points=[[0,0.5],[1,0.5]];portConstraint=eastwest;" parent="xOTYMeT0zOCIHmv7LB-7-48" vertex="1">
                    <mxGeometry y="54" width="140" height="25" as="geometry"/>
                </mxCell>
                <mxCell id="pucY9gG1MF8T4s6Rqlj4-20" value="&lt;div style=&quot;color: rgb(214, 214, 221); background-color: rgb(24, 24, 24); font-family: Consolas, &amp;quot;Courier New&amp;quot;, monospace; font-weight: normal; font-size: 14px; line-height: 19px;&quot;&gt;&lt;div style=&quot;line-height: 19px;&quot;&gt;&lt;span style=&quot;color: #efb080;&quot;&gt;IOrganizationAppService&lt;/span&gt;&lt;/div&gt;&lt;/div&gt;" style="swimlane;fontStyle=1;align=center;verticalAlign=middle;childLayout=stackLayout;horizontal=1;startSize=29;horizontalStack=0;resizeParent=1;resizeParentMax=0;resizeLast=0;collapsible=0;marginBottom=0;html=1;" parent="1" vertex="1">
                    <mxGeometry y="60" width="670" height="210" as="geometry"/>
                </mxCell>
                <mxCell id="pucY9gG1MF8T4s6Rqlj4-21" value="&amp;lt;&amp;lt;&lt;span style=&quot;color: rgb(239, 176, 128); background-color: rgb(24, 24, 24); font-family: Consolas, &amp;quot;Courier New&amp;quot;, monospace; font-size: 14px;&quot;&gt;IApplicationService&lt;/span&gt;&lt;span style=&quot;background-color: initial;&quot;&gt;&amp;gt;&amp;gt;&lt;/span&gt;" style="text;html=1;strokeColor=none;fillColor=none;align=center;verticalAlign=middle;spacingLeft=4;spacingRight=4;overflow=hidden;rotatable=0;points=[[0,0.5],[1,0.5]];portConstraint=eastwest;" parent="pucY9gG1MF8T4s6Rqlj4-20" vertex="1">
                    <mxGeometry y="29" width="670" height="25" as="geometry"/>
                </mxCell>
                <mxCell id="pucY9gG1MF8T4s6Rqlj4-22" value="&lt;div style=&quot;color: rgb(214, 214, 221); background-color: rgb(24, 24, 24); font-family: Consolas, &amp;quot;Courier New&amp;quot;, monospace; font-size: 14px; line-height: 19px;&quot;&gt;&lt;div&gt;&lt;span style=&quot;color: #efb080;&quot;&gt;Task&lt;/span&gt;&amp;lt;&lt;span style=&quot;color: #efb080;&quot;&gt;OrganizationDto&lt;/span&gt;&amp;gt; &lt;span style=&quot;color: #efb080;&quot;&gt;CreateAsync&lt;/span&gt;(&lt;span style=&quot;color: #efb080;&quot;&gt;CreateOrganizationDto&lt;/span&gt; input);&lt;/div&gt;&lt;div&gt;&lt;span style=&quot;color: #efb080;&quot;&gt;Task&lt;/span&gt;&amp;lt;&lt;span style=&quot;color: #efb080;&quot;&gt;PagedResultDto&lt;/span&gt;&amp;lt;&lt;span style=&quot;color: #efb080;&quot;&gt;OrganizationInListDto&lt;/span&gt;&amp;gt;&amp;gt; &lt;span style=&quot;color: #efb080;&quot;&gt;GetListAsync&lt;/span&gt;(&lt;span style=&quot;color: #efb080;&quot;&gt;OrganizationListFilterDto&lt;/span&gt; input);&lt;/div&gt;&lt;div&gt;&lt;span style=&quot;color: #efb080;&quot;&gt;Task&lt;/span&gt;&amp;lt;&lt;span style=&quot;color: #efb080;&quot;&gt;OrganizationProfileDto&lt;/span&gt;&amp;gt; &lt;span style=&quot;color: #efb080;&quot;&gt;GetProfileAsync&lt;/span&gt;(&lt;span style=&quot;color: #83d6c5;&quot;&gt;string&lt;/span&gt; name);&lt;/div&gt;&lt;div&gt;&lt;span style=&quot;color: #efb080;&quot;&gt;Task&lt;/span&gt;&amp;lt;&lt;span style=&quot;color: #efb080;&quot;&gt;ListResultDto&lt;/span&gt;&amp;lt;&lt;span style=&quot;color: #efb080;&quot;&gt;OrganizationInListDto&lt;/span&gt;&amp;gt;&amp;gt; &lt;span style=&quot;color: #efb080;&quot;&gt;GetOrganizationsByUserIdAsync&lt;/span&gt;(&lt;span style=&quot;color: #efb080;&quot;&gt;Guid&lt;/span&gt; userId);&lt;/div&gt;&lt;div&gt;&lt;span style=&quot;color: #efb080;&quot;&gt;Task&lt;/span&gt;&amp;lt;&lt;span style=&quot;color: #83d6c5;&quot;&gt;bool&lt;/span&gt;&amp;gt; &lt;span style=&quot;color: #efb080;&quot;&gt;IsOrganizationOwnerAsync&lt;/span&gt;(&lt;span style=&quot;color: #efb080;&quot;&gt;Guid&lt;/span&gt; organizationId);&lt;/div&gt;&lt;div&gt;&lt;span style=&quot;color: #efb080;&quot;&gt;Task&lt;/span&gt; &lt;span style=&quot;color: #efb080;&quot;&gt;UpdateAsync&lt;/span&gt;(&lt;span style=&quot;color: #efb080;&quot;&gt;Guid&lt;/span&gt; id, &lt;span style=&quot;color: #efb080;&quot;&gt;UpdateOrganizationDto&lt;/span&gt; input);&lt;/div&gt;&lt;div&gt;&lt;span style=&quot;color: #efb080;&quot;&gt;Task&lt;/span&gt;&amp;lt;&lt;span style=&quot;color: #efb080;&quot;&gt;IRemoteStreamContent&lt;/span&gt;&amp;gt; &lt;span style=&quot;color: #efb080;&quot;&gt;GetProfilePictureAsync&lt;/span&gt;(&lt;span style=&quot;color: #efb080;&quot;&gt;Guid&lt;/span&gt; id);&amp;nbsp; &amp;nbsp; &amp;nbsp; &amp;nbsp;&lt;/div&gt;&lt;div&gt;&lt;span style=&quot;color: #efb080;&quot;&gt;Task&lt;/span&gt;&amp;lt;&lt;span style=&quot;color: #efb080;&quot;&gt;List&lt;/span&gt;&amp;lt;&lt;span style=&quot;color: #efb080;&quot;&gt;PlanInfoDefinitionDto&lt;/span&gt;&amp;gt;&amp;gt; &lt;span style=&quot;color: #efb080;&quot;&gt;GetPlanInfosAsync&lt;/span&gt;();&lt;/div&gt;&lt;/div&gt;" style="text;html=1;strokeColor=none;fillColor=none;align=left;verticalAlign=middle;spacingLeft=4;spacingRight=4;overflow=hidden;rotatable=0;points=[[0,0.5],[1,0.5]];portConstraint=eastwest;" parent="pucY9gG1MF8T4s6Rqlj4-20" vertex="1">
                    <mxGeometry y="54" width="670" height="156" as="geometry"/>
                </mxCell>
                <mxCell id="pucY9gG1MF8T4s6Rqlj4-23" value="&lt;div style=&quot;color: rgb(214, 214, 221); background-color: rgb(24, 24, 24); font-family: Consolas, &amp;quot;Courier New&amp;quot;, monospace; font-weight: normal; font-size: 14px; line-height: 19px;&quot;&gt;&lt;span style=&quot;color: #efb080;&quot;&gt;IOrganizationMembershipAppService&lt;/span&gt;&lt;/div&gt;" style="swimlane;fontStyle=1;align=center;verticalAlign=middle;childLayout=stackLayout;horizontal=1;startSize=29;horizontalStack=0;resizeParent=1;resizeParentMax=0;resizeLast=0;collapsible=0;marginBottom=0;html=1;" parent="1" vertex="1">
                    <mxGeometry x="800" y="114" width="440" height="150" as="geometry"/>
                </mxCell>
                <mxCell id="pucY9gG1MF8T4s6Rqlj4-24" value="&amp;lt;&amp;lt;&lt;span style=&quot;color: rgb(239, 176, 128); background-color: rgb(24, 24, 24); font-family: Consolas, &amp;quot;Courier New&amp;quot;, monospace; font-size: 14px;&quot;&gt;IApplicationService&lt;/span&gt;&lt;span style=&quot;background-color: initial;&quot;&gt;&amp;gt;&amp;gt;&lt;/span&gt;" style="text;html=1;strokeColor=none;fillColor=none;align=center;verticalAlign=middle;spacingLeft=4;spacingRight=4;overflow=hidden;rotatable=0;points=[[0,0.5],[1,0.5]];portConstraint=eastwest;" parent="pucY9gG1MF8T4s6Rqlj4-23" vertex="1">
                    <mxGeometry y="29" width="440" height="25" as="geometry"/>
                </mxCell>
                <mxCell id="pucY9gG1MF8T4s6Rqlj4-25" value="&lt;div style=&quot;color: rgb(214, 214, 221); background-color: rgb(24, 24, 24); font-family: Consolas, &amp;quot;Courier New&amp;quot;, monospace; font-size: 14px; line-height: 19px;&quot;&gt;&lt;div&gt;&lt;span style=&quot;color: #efb080;&quot;&gt;Task&lt;/span&gt; &lt;span style=&quot;color: #efb080;&quot;&gt;JoinAsync&lt;/span&gt;(&lt;span style=&quot;color: #efb080;&quot;&gt;Guid&lt;/span&gt; organizationId);&lt;/div&gt;&lt;div&gt;&lt;span style=&quot;color: #efb080;&quot;&gt;Task&lt;/span&gt; &lt;span style=&quot;color: #efb080;&quot;&gt;LeaveAsync&lt;/span&gt;(&lt;span style=&quot;color: #efb080;&quot;&gt;Guid&lt;/span&gt; organizationId);&lt;/div&gt;&lt;div&gt;&lt;span style=&quot;color: #efb080;&quot;&gt;Task&lt;/span&gt;&amp;lt;&lt;span style=&quot;color: #83d6c5;&quot;&gt;bool&lt;/span&gt;&amp;gt; &lt;span style=&quot;color: #efb080;&quot;&gt;IsJoinedAsync&lt;/span&gt;(&lt;span style=&quot;color: #efb080;&quot;&gt;Guid&lt;/span&gt; organizationId);&lt;/div&gt;&lt;div&gt;&lt;span style=&quot;color: #efb080;&quot;&gt;Task&lt;/span&gt;&amp;lt;&lt;span style=&quot;color: #efb080;&quot;&gt;PagedResultDto&lt;/span&gt;&amp;lt;&lt;span style=&quot;color: #efb080;&quot;&gt;OrganizationMemberDto&lt;/span&gt;&amp;gt;&amp;gt; &lt;span style=&quot;color: #efb080;&quot;&gt;GetMembersAsync&lt;/span&gt;(&lt;span style=&quot;color: #efb080;&quot;&gt;OrganizationMemberListFilterDto&lt;/span&gt; input);&lt;/div&gt;&lt;/div&gt;" style="text;html=1;strokeColor=none;fillColor=none;align=left;verticalAlign=middle;spacingLeft=4;spacingRight=4;overflow=hidden;rotatable=0;points=[[0,0.5],[1,0.5]];portConstraint=eastwest;" parent="pucY9gG1MF8T4s6Rqlj4-23" vertex="1">
                    <mxGeometry y="54" width="440" height="96" as="geometry"/>
                </mxCell>
            </root>
        </mxGraphModel>
    </diagram>
    <diagram id="WDX0EDaL4p_hIo7CYBMG" name="Event">
        <mxGraphModel dx="762" dy="934" grid="1" gridSize="10" guides="1" tooltips="1" connect="1" arrows="1" fold="1" page="1" pageScale="1" pageWidth="3300" pageHeight="4681" math="0" shadow="0">
            <root>
                <mxCell id="0"/>
                <mxCell id="1" parent="0"/>
                <mxCell id="ZlgSIY0GweZU1nGN7Hba-15" value="&lt;div style=&quot;color: rgb(214, 214, 221); background-color: rgb(24, 24, 24); font-family: Consolas, &amp;quot;Courier New&amp;quot;, monospace; font-weight: normal; font-size: 14px; line-height: 19px;&quot;&gt;&lt;span style=&quot;color: #87c3ff;&quot;&gt;Speaker&lt;/span&gt;&lt;/div&gt;" style="swimlane;fontStyle=1;align=center;verticalAlign=middle;childLayout=stackLayout;horizontal=1;startSize=29;horizontalStack=0;resizeParent=1;resizeParentMax=0;resizeLast=0;collapsible=0;marginBottom=0;html=1;" parent="1" vertex="1">
                    <mxGeometry x="660" y="730" width="290" height="100" as="geometry"/>
                </mxCell>
                <mxCell id="ZlgSIY0GweZU1nGN7Hba-16" value="&amp;lt;&amp;lt;&lt;span style=&quot;color: rgb(239, 176, 128); background-color: rgb(24, 24, 24); font-family: Consolas, &amp;quot;Courier New&amp;quot;, monospace; font-size: 14px;&quot;&gt;Entity&lt;/span&gt;&lt;span style=&quot;background-color: initial;&quot;&gt;&amp;gt;&amp;gt;&lt;/span&gt;" style="text;html=1;strokeColor=none;fillColor=none;align=center;verticalAlign=middle;spacingLeft=4;spacingRight=4;overflow=hidden;rotatable=0;points=[[0,0.5],[1,0.5]];portConstraint=eastwest;" parent="ZlgSIY0GweZU1nGN7Hba-15" vertex="1">
                    <mxGeometry y="29" width="290" height="25" as="geometry"/>
                </mxCell>
                <mxCell id="ZlgSIY0GweZU1nGN7Hba-17" value="&lt;div style=&quot;color: rgb(214, 214, 221); background-color: rgb(24, 24, 24); font-family: Consolas, &amp;quot;Courier New&amp;quot;, monospace; font-size: 14px; line-height: 19px;&quot;&gt;&lt;div&gt;&lt;span style=&quot;color: #efb080;&quot;&gt;Guid&lt;/span&gt; SessionId { &lt;span style=&quot;color: #82d2ce;&quot;&gt;get&lt;/span&gt;; &lt;span style=&quot;color: #82d2ce;&quot;&gt;private&lt;/span&gt; &lt;span style=&quot;color: #82d2ce;&quot;&gt;set&lt;/span&gt;; }&amp;nbsp; &amp;nbsp; &amp;nbsp; &amp;nbsp;&lt;/div&gt;&lt;div&gt;&lt;span style=&quot;color: #efb080;&quot;&gt;Guid&lt;/span&gt; UserId { &lt;span style=&quot;color: #82d2ce;&quot;&gt;get&lt;/span&gt;; &lt;span style=&quot;color: #82d2ce;&quot;&gt;private&lt;/span&gt; &lt;span style=&quot;color: #82d2ce;&quot;&gt;set&lt;/span&gt;; }&lt;/div&gt;&lt;/div&gt;" style="text;html=1;strokeColor=none;fillColor=none;align=left;verticalAlign=middle;spacingLeft=4;spacingRight=4;overflow=hidden;rotatable=0;points=[[0,0.5],[1,0.5]];portConstraint=eastwest;" parent="ZlgSIY0GweZU1nGN7Hba-15" vertex="1">
                    <mxGeometry y="54" width="290" height="46" as="geometry"/>
                </mxCell>
                <mxCell id="ZlgSIY0GweZU1nGN7Hba-18" value="&lt;div style=&quot;color: rgb(214, 214, 221); background-color: rgb(24, 24, 24); font-family: Consolas, &amp;quot;Courier New&amp;quot;, monospace; font-weight: normal; font-size: 14px; line-height: 19px;&quot;&gt;&lt;span style=&quot;color: #87c3ff;&quot;&gt;Track&lt;/span&gt;&lt;/div&gt;" style="swimlane;fontStyle=1;align=center;verticalAlign=middle;childLayout=stackLayout;horizontal=1;startSize=29;horizontalStack=0;resizeParent=1;resizeParentMax=0;resizeLast=0;collapsible=0;marginBottom=0;html=1;" parent="1" vertex="1">
                    <mxGeometry x="670" y="330" width="240" height="170" as="geometry"/>
                </mxCell>
                <mxCell id="ZlgSIY0GweZU1nGN7Hba-19" value="&amp;lt;&amp;lt;&lt;span style=&quot;font-family: Consolas, &amp;quot;Courier New&amp;quot;, monospace; font-size: 14px; color: rgb(239, 176, 128);&quot;&gt;Entity&lt;/span&gt;&lt;span style=&quot;background-color: rgb(24, 24, 24); color: rgb(214, 214, 221); font-family: Consolas, &amp;quot;Courier New&amp;quot;, monospace; font-size: 14px;&quot;&gt;&amp;lt;&lt;/span&gt;&lt;span style=&quot;font-family: Consolas, &amp;quot;Courier New&amp;quot;, monospace; font-size: 14px; color: rgb(239, 176, 128);&quot;&gt;Guid&lt;/span&gt;&lt;span style=&quot;background-color: rgb(24, 24, 24); color: rgb(214, 214, 221); font-family: Consolas, &amp;quot;Courier New&amp;quot;, monospace; font-size: 14px;&quot;&gt;&amp;gt;&lt;/span&gt;&lt;span style=&quot;background-color: initial;&quot;&gt;&amp;gt;&amp;gt;&lt;/span&gt;" style="text;html=1;strokeColor=none;fillColor=none;align=center;verticalAlign=middle;spacingLeft=4;spacingRight=4;overflow=hidden;rotatable=0;points=[[0,0.5],[1,0.5]];portConstraint=eastwest;" parent="ZlgSIY0GweZU1nGN7Hba-18" vertex="1">
                    <mxGeometry y="29" width="240" height="25" as="geometry"/>
                </mxCell>
                <mxCell id="ZlgSIY0GweZU1nGN7Hba-20" value="&lt;div style=&quot;color: rgb(214, 214, 221); background-color: rgb(24, 24, 24); font-family: Consolas, &amp;quot;Courier New&amp;quot;, monospace; font-size: 14px; line-height: 19px;&quot;&gt;&lt;div&gt;&lt;span style=&quot;color: #efb080;&quot;&gt;Guid&lt;/span&gt; EventId&amp;nbsp; &amp;nbsp; &amp;nbsp; &amp;nbsp;&amp;nbsp;&lt;/div&gt;&lt;div&gt;&lt;span style=&quot;color: #efb080;&quot;&gt;ICollection&lt;/span&gt;&amp;lt;&lt;span style=&quot;color: #efb080;&quot;&gt;Session&lt;/span&gt;&amp;gt; Sessions&lt;/div&gt;&lt;div&gt;&lt;br&gt;&lt;/div&gt;&lt;div&gt;&lt;div style=&quot;line-height: 19px;&quot;&gt;&lt;span style=&quot;color: #efb080;&quot;&gt;Track&lt;/span&gt; &lt;span style=&quot;color: #efb080;&quot;&gt;AddSession&lt;/span&gt;&lt;/div&gt;&lt;/div&gt;&lt;div style=&quot;line-height: 19px;&quot;&gt;&lt;div style=&quot;line-height: 19px;&quot;&gt;&lt;span style=&quot;color: #efb080;&quot;&gt;Track&lt;/span&gt; &lt;span style=&quot;color: #efb080;&quot;&gt;UpdateSession&lt;/span&gt;&lt;/div&gt;&lt;div style=&quot;line-height: 19px;&quot;&gt;&lt;div style=&quot;line-height: 19px;&quot;&gt;&lt;span style=&quot;color: #efb080;&quot;&gt;Track&lt;/span&gt; &lt;span style=&quot;color: #efb080;&quot;&gt;RemoveSession&lt;/span&gt;&lt;/div&gt;&lt;/div&gt;&lt;/div&gt;&lt;/div&gt;" style="text;html=1;strokeColor=none;fillColor=none;align=left;verticalAlign=middle;spacingLeft=4;spacingRight=4;overflow=hidden;rotatable=0;points=[[0,0.5],[1,0.5]];portConstraint=eastwest;" parent="ZlgSIY0GweZU1nGN7Hba-18" vertex="1">
                    <mxGeometry y="54" width="240" height="116" as="geometry"/>
                </mxCell>
                <mxCell id="ZlgSIY0GweZU1nGN7Hba-21" value="&lt;span style=&quot;color: rgb(135, 195, 255); font-family: Consolas, &amp;quot;Courier New&amp;quot;, monospace; font-size: 14px; font-weight: 400; background-color: rgb(24, 24, 24);&quot;&gt;Session&lt;/span&gt;" style="swimlane;fontStyle=1;align=center;verticalAlign=middle;childLayout=stackLayout;horizontal=1;startSize=29;horizontalStack=0;resizeParent=1;resizeParentMax=0;resizeLast=0;collapsible=0;marginBottom=0;html=1;" parent="1" vertex="1">
                    <mxGeometry x="650" y="532" width="380" height="150" as="geometry"/>
                </mxCell>
                <mxCell id="ZlgSIY0GweZU1nGN7Hba-22" value="&amp;lt;&amp;lt;&lt;span style=&quot;font-family: Consolas, &amp;quot;Courier New&amp;quot;, monospace; font-size: 14px; color: rgb(239, 176, 128);&quot;&gt;Entity&lt;/span&gt;&lt;span style=&quot;background-color: rgb(24, 24, 24); color: rgb(214, 214, 221); font-family: Consolas, &amp;quot;Courier New&amp;quot;, monospace; font-size: 14px;&quot;&gt;&amp;lt;&lt;/span&gt;&lt;span style=&quot;font-family: Consolas, &amp;quot;Courier New&amp;quot;, monospace; font-size: 14px; color: rgb(239, 176, 128);&quot;&gt;Guid&lt;/span&gt;&lt;span style=&quot;background-color: rgb(24, 24, 24); color: rgb(214, 214, 221); font-family: Consolas, &amp;quot;Courier New&amp;quot;, monospace; font-size: 14px;&quot;&gt;&amp;gt;&lt;/span&gt;&lt;span style=&quot;background-color: initial;&quot;&gt;&amp;gt;&amp;gt;&lt;/span&gt;" style="text;html=1;strokeColor=none;fillColor=none;align=center;verticalAlign=middle;spacingLeft=4;spacingRight=4;overflow=hidden;rotatable=0;points=[[0,0.5],[1,0.5]];portConstraint=eastwest;" parent="ZlgSIY0GweZU1nGN7Hba-21" vertex="1">
                    <mxGeometry y="29" width="380" height="25" as="geometry"/>
                </mxCell>
                <mxCell id="ZlgSIY0GweZU1nGN7Hba-23" value="&lt;div style=&quot;color: rgb(214, 214, 221); background-color: rgb(24, 24, 24); font-family: Consolas, &amp;quot;Courier New&amp;quot;, monospace; font-size: 14px; line-height: 19px;&quot;&gt;&lt;span style=&quot;color: rgb(239, 176, 128);&quot;&gt;Guid&lt;/span&gt;&amp;nbsp;TrackId&lt;/div&gt;&lt;div style=&quot;color: rgb(214, 214, 221); background-color: rgb(24, 24, 24); font-family: Consolas, &amp;quot;Courier New&amp;quot;, monospace; font-size: 14px; line-height: 19px;&quot;&gt;&lt;div style=&quot;line-height: 19px;&quot;&gt;&lt;span style=&quot;color: rgb(239, 176, 128);&quot;&gt;ICollection&lt;/span&gt;&amp;lt;&lt;span style=&quot;color: rgb(239, 176, 128);&quot;&gt;Speaker&lt;/span&gt;&amp;gt; Speakers&lt;/div&gt;&lt;div style=&quot;line-height: 19px;&quot;&gt;&lt;br&gt;&lt;/div&gt;&lt;div style=&quot;line-height: 19px;&quot;&gt;&lt;div style=&quot;line-height: 19px;&quot;&gt;&lt;span style=&quot;color: rgb(239, 176, 128);&quot;&gt;Session&lt;/span&gt;&amp;nbsp;&lt;span style=&quot;color: rgb(239, 176, 128);&quot;&gt;AddSpeakers&lt;/span&gt;(&lt;span style=&quot;color: rgb(239, 176, 128);&quot;&gt;ICollection&lt;/span&gt;&amp;lt;&lt;span style=&quot;color: rgb(239, 176, 128);&quot;&gt;Guid&lt;/span&gt;&amp;gt; userIds)&lt;/div&gt;&lt;div style=&quot;line-height: 19px;&quot;&gt;&lt;div style=&quot;line-height: 19px;&quot;&gt;&lt;span style=&quot;color: rgb(239, 176, 128);&quot;&gt;Session&lt;/span&gt;&amp;nbsp;&lt;span style=&quot;color: rgb(239, 176, 128);&quot;&gt;RemoveSpeakers&lt;/span&gt;(&lt;span style=&quot;color: rgb(239, 176, 128);&quot;&gt;ICollection&lt;/span&gt;&amp;lt;&lt;span style=&quot;color: rgb(239, 176, 128);&quot;&gt;Guid&lt;/span&gt;&amp;gt; userIds)&lt;/div&gt;&lt;/div&gt;&lt;/div&gt;&lt;/div&gt;" style="text;html=1;strokeColor=none;fillColor=none;align=left;verticalAlign=middle;spacingLeft=4;spacingRight=4;overflow=hidden;rotatable=0;points=[[0,0.5],[1,0.5]];portConstraint=eastwest;" parent="ZlgSIY0GweZU1nGN7Hba-21" vertex="1">
                    <mxGeometry y="54" width="380" height="96" as="geometry"/>
                </mxCell>
                <mxCell id="ZlgSIY0GweZU1nGN7Hba-24" value="&lt;span style=&quot;color: rgb(135, 195, 255); font-family: Consolas, &amp;quot;Courier New&amp;quot;, monospace; font-size: 14px; font-weight: 400; background-color: rgb(24, 24, 24);&quot;&gt;Event&lt;/span&gt;" style="swimlane;fontStyle=1;align=center;verticalAlign=middle;childLayout=stackLayout;horizontal=1;startSize=29;horizontalStack=0;resizeParent=1;resizeParentMax=0;resizeLast=0;collapsible=0;marginBottom=0;html=1;" parent="1" vertex="1">
                    <mxGeometry x="290" y="420" width="230" height="110" as="geometry"/>
                </mxCell>
                <mxCell id="ZlgSIY0GweZU1nGN7Hba-25" value="&amp;lt;&amp;lt;&lt;span style=&quot;font-family: Consolas, &amp;quot;Courier New&amp;quot;, monospace; font-size: 14px; color: rgb(239, 176, 128);&quot;&gt;FullAuditedAggregateRoot&lt;/span&gt;&lt;span style=&quot;background-color: rgb(24, 24, 24); color: rgb(214, 214, 221); font-family: Consolas, &amp;quot;Courier New&amp;quot;, monospace; font-size: 14px;&quot;&gt;&amp;lt;&lt;/span&gt;&lt;span style=&quot;font-family: Consolas, &amp;quot;Courier New&amp;quot;, monospace; font-size: 14px; color: rgb(239, 176, 128);&quot;&gt;Guid&lt;/span&gt;&lt;span style=&quot;background-color: rgb(24, 24, 24); color: rgb(214, 214, 221); font-family: Consolas, &amp;quot;Courier New&amp;quot;, monospace; font-size: 14px;&quot;&gt;&amp;gt;&lt;/span&gt;&lt;span style=&quot;background-color: initial;&quot;&gt;&amp;gt;&amp;gt;&lt;/span&gt;" style="text;html=1;strokeColor=none;fillColor=none;align=center;verticalAlign=middle;spacingLeft=4;spacingRight=4;overflow=hidden;rotatable=0;points=[[0,0.5],[1,0.5]];portConstraint=eastwest;" parent="ZlgSIY0GweZU1nGN7Hba-24" vertex="1">
                    <mxGeometry y="29" width="230" height="25" as="geometry"/>
                </mxCell>
                <mxCell id="ZlgSIY0GweZU1nGN7Hba-26" value="&lt;div style=&quot;color: rgb(214, 214, 221); background-color: rgb(24, 24, 24); font-family: Consolas, &amp;quot;Courier New&amp;quot;, monospace; font-size: 14px; line-height: 19px;&quot;&gt;OrganizationId&lt;/div&gt;&lt;div style=&quot;color: rgb(214, 214, 221); background-color: rgb(24, 24, 24); font-family: Consolas, &amp;quot;Courier New&amp;quot;, monospace; font-size: 14px; line-height: 19px;&quot;&gt;&lt;div style=&quot;line-height: 19px;&quot;&gt;CountryId&lt;/div&gt;&lt;div style=&quot;line-height: 19px;&quot;&gt;&lt;div style=&quot;line-height: 19px;&quot;&gt;&lt;span style=&quot;color: rgb(239, 176, 128);&quot;&gt;ICollection&lt;/span&gt;&amp;lt;&lt;span style=&quot;color: rgb(239, 176, 128);&quot;&gt;Track&lt;/span&gt;&amp;gt; Tracks&lt;/div&gt;&lt;/div&gt;&lt;/div&gt;" style="text;html=1;strokeColor=none;fillColor=none;align=left;verticalAlign=middle;spacingLeft=4;spacingRight=4;overflow=hidden;rotatable=0;points=[[0,0.5],[1,0.5]];portConstraint=eastwest;" parent="ZlgSIY0GweZU1nGN7Hba-24" vertex="1">
                    <mxGeometry y="54" width="230" height="56" as="geometry"/>
                </mxCell>
                <mxCell id="ZlgSIY0GweZU1nGN7Hba-27" value="&lt;span style=&quot;color: rgb(135, 195, 255); font-family: Consolas, &amp;quot;Courier New&amp;quot;, monospace; font-size: 14px; font-weight: 400; background-color: rgb(24, 24, 24);&quot;&gt;EventManager&lt;/span&gt;" style="swimlane;fontStyle=1;align=center;verticalAlign=middle;childLayout=stackLayout;horizontal=1;startSize=29;horizontalStack=0;resizeParent=1;resizeParentMax=0;resizeLast=0;collapsible=0;marginBottom=0;html=1;" parent="1" vertex="1">
                    <mxGeometry x="320" y="240" width="140" height="110" as="geometry"/>
                </mxCell>
                <mxCell id="ZlgSIY0GweZU1nGN7Hba-28" value="&amp;lt;&amp;lt;&lt;span style=&quot;color: rgb(239, 176, 128); background-color: rgb(24, 24, 24); font-family: Consolas, &amp;quot;Courier New&amp;quot;, monospace; font-size: 14px;&quot;&gt;DomainService&lt;/span&gt;&lt;span style=&quot;background-color: initial;&quot;&gt;&amp;gt;&amp;gt;&lt;/span&gt;" style="text;html=1;strokeColor=none;fillColor=none;align=center;verticalAlign=middle;spacingLeft=4;spacingRight=4;overflow=hidden;rotatable=0;points=[[0,0.5],[1,0.5]];portConstraint=eastwest;" parent="ZlgSIY0GweZU1nGN7Hba-27" vertex="1">
                    <mxGeometry y="29" width="140" height="25" as="geometry"/>
                </mxCell>
                <mxCell id="ZlgSIY0GweZU1nGN7Hba-29" value="&lt;div style=&quot;color: rgb(214, 214, 221); background-color: rgb(24, 24, 24); font-family: Consolas, &amp;quot;Courier New&amp;quot;, monospace; font-size: 14px; line-height: 19px;&quot;&gt;&lt;span style=&quot;color: rgb(239, 176, 128);&quot;&gt;CreateAsync&lt;/span&gt;&lt;/div&gt;&lt;div style=&quot;color: rgb(214, 214, 221); background-color: rgb(24, 24, 24); font-family: Consolas, &amp;quot;Courier New&amp;quot;, monospace; font-size: 14px; line-height: 19px;&quot;&gt;&lt;div style=&quot;line-height: 19px;&quot;&gt;&lt;span style=&quot;color: rgb(239, 176, 128);&quot;&gt;AddTrackAsync&lt;/span&gt;&lt;/div&gt;&lt;div style=&quot;line-height: 19px;&quot;&gt;&lt;div style=&quot;line-height: 19px;&quot;&gt;&lt;span style=&quot;color: rgb(239, 176, 128);&quot;&gt;SetCapacityAsync&lt;/span&gt;&lt;/div&gt;&lt;div style=&quot;line-height: 19px;&quot;&gt;&lt;div style=&quot;line-height: 19px;&quot;&gt;&lt;span style=&quot;color: rgb(239, 176, 128);&quot;&gt;SetLocationAsync&lt;/span&gt;&lt;/div&gt;&lt;/div&gt;&lt;/div&gt;&lt;/div&gt;" style="text;html=1;strokeColor=none;fillColor=none;align=left;verticalAlign=middle;spacingLeft=4;spacingRight=4;overflow=hidden;rotatable=0;points=[[0,0.5],[1,0.5]];portConstraint=eastwest;" parent="ZlgSIY0GweZU1nGN7Hba-27" vertex="1">
                    <mxGeometry y="54" width="140" height="56" as="geometry"/>
                </mxCell>
                <mxCell id="ZlgSIY0GweZU1nGN7Hba-30" value="&lt;span style=&quot;color: rgb(239, 176, 128); font-family: Consolas, &amp;quot;Courier New&amp;quot;, monospace; font-size: 14px; font-weight: 400; background-color: rgb(24, 24, 24);&quot;&gt;IEventRepository&lt;/span&gt;" style="swimlane;fontStyle=1;align=center;verticalAlign=middle;childLayout=stackLayout;horizontal=1;startSize=29;horizontalStack=0;resizeParent=1;resizeParentMax=0;resizeLast=0;collapsible=0;marginBottom=0;html=1;" parent="1" vertex="1">
                    <mxGeometry x="345" y="770" width="140" height="100" as="geometry"/>
                </mxCell>
                <mxCell id="ZlgSIY0GweZU1nGN7Hba-31" value="&amp;lt;&amp;lt;&lt;span style=&quot;font-family: Consolas, &amp;quot;Courier New&amp;quot;, monospace; font-size: 14px; color: rgb(239, 176, 128);&quot;&gt;IRepository&lt;/span&gt;&lt;span style=&quot;background-color: rgb(24, 24, 24); color: rgb(214, 214, 221); font-family: Consolas, &amp;quot;Courier New&amp;quot;, monospace; font-size: 14px;&quot;&gt;&amp;lt;&lt;/span&gt;&lt;span style=&quot;font-family: Consolas, &amp;quot;Courier New&amp;quot;, monospace; font-size: 14px; color: rgb(239, 176, 128);&quot;&gt;Event&lt;/span&gt;&lt;span style=&quot;background-color: rgb(24, 24, 24); color: rgb(214, 214, 221); font-family: Consolas, &amp;quot;Courier New&amp;quot;, monospace; font-size: 14px;&quot;&gt;, &lt;/span&gt;&lt;span style=&quot;font-family: Consolas, &amp;quot;Courier New&amp;quot;, monospace; font-size: 14px; color: rgb(239, 176, 128);&quot;&gt;Guid&lt;/span&gt;&lt;span style=&quot;background-color: rgb(24, 24, 24); color: rgb(214, 214, 221); font-family: Consolas, &amp;quot;Courier New&amp;quot;, monospace; font-size: 14px;&quot;&gt;&amp;gt;&lt;/span&gt;&lt;span style=&quot;background-color: initial;&quot;&gt;&amp;gt;&amp;gt;&lt;/span&gt;" style="text;html=1;strokeColor=none;fillColor=none;align=center;verticalAlign=middle;spacingLeft=4;spacingRight=4;overflow=hidden;rotatable=0;points=[[0,0.5],[1,0.5]];portConstraint=eastwest;" parent="ZlgSIY0GweZU1nGN7Hba-30" vertex="1">
                    <mxGeometry y="29" width="140" height="25" as="geometry"/>
                </mxCell>
                <mxCell id="ZlgSIY0GweZU1nGN7Hba-32" value="&lt;div style=&quot;color: rgb(214, 214, 221); background-color: rgb(24, 24, 24); font-family: Consolas, &amp;quot;Courier New&amp;quot;, monospace; font-size: 14px; line-height: 19px;&quot;&gt;&lt;span style=&quot;color: rgb(239, 176, 128);&quot;&gt;GetCountAsync&lt;/span&gt;&lt;/div&gt;&lt;div style=&quot;color: rgb(214, 214, 221); background-color: rgb(24, 24, 24); font-family: Consolas, &amp;quot;Courier New&amp;quot;, monospace; font-size: 14px; line-height: 19px;&quot;&gt;&lt;div style=&quot;line-height: 19px;&quot;&gt;&lt;span style=&quot;color: rgb(239, 176, 128);&quot;&gt;GetListAsync&lt;/span&gt;&lt;/div&gt;&lt;/div&gt;" style="text;html=1;strokeColor=none;fillColor=none;align=left;verticalAlign=middle;spacingLeft=4;spacingRight=4;overflow=hidden;rotatable=0;points=[[0,0.5],[1,0.5]];portConstraint=eastwest;" parent="ZlgSIY0GweZU1nGN7Hba-30" vertex="1">
                    <mxGeometry y="54" width="140" height="46" as="geometry"/>
                </mxCell>
                <mxCell id="ZlgSIY0GweZU1nGN7Hba-33" value="&lt;span style=&quot;color: rgb(135, 195, 255); font-family: Consolas, &amp;quot;Courier New&amp;quot;, monospace; font-size: 14px; font-weight: 400; background-color: rgb(24, 24, 24);&quot;&gt;EventWithDetails&lt;/span&gt;" style="swimlane;fontStyle=1;align=center;verticalAlign=middle;childLayout=stackLayout;horizontal=1;startSize=29;horizontalStack=0;resizeParent=1;resizeParentMax=0;resizeLast=0;collapsible=0;marginBottom=0;html=1;" parent="1" vertex="1">
                    <mxGeometry x="90" y="463" width="140" height="79" as="geometry"/>
                </mxCell>
                <mxCell id="ZlgSIY0GweZU1nGN7Hba-34" value="&amp;lt;&amp;lt;&amp;gt;&amp;gt;" style="text;html=1;strokeColor=none;fillColor=none;align=center;verticalAlign=middle;spacingLeft=4;spacingRight=4;overflow=hidden;rotatable=0;points=[[0,0.5],[1,0.5]];portConstraint=eastwest;" parent="ZlgSIY0GweZU1nGN7Hba-33" vertex="1">
                    <mxGeometry y="29" width="140" height="25" as="geometry"/>
                </mxCell>
                <mxCell id="ZlgSIY0GweZU1nGN7Hba-35" value="&lt;span style=&quot;font-family: Consolas, &amp;quot;Courier New&amp;quot;, monospace; font-size: 14px; color: rgb(239, 176, 128);&quot;&gt;Guid&lt;/span&gt;&lt;span style=&quot;color: rgb(214, 214, 221); font-family: Consolas, &amp;quot;Courier New&amp;quot;, monospace; font-size: 14px; background-color: rgb(24, 24, 24);&quot;&gt;&amp;nbsp;Id&lt;/span&gt;" style="text;html=1;strokeColor=none;fillColor=none;align=left;verticalAlign=middle;spacingLeft=4;spacingRight=4;overflow=hidden;rotatable=0;points=[[0,0.5],[1,0.5]];portConstraint=eastwest;" parent="ZlgSIY0GweZU1nGN7Hba-33" vertex="1">
                    <mxGeometry y="54" width="140" height="25" as="geometry"/>
                </mxCell>
                <mxCell id="ZlgSIY0GweZU1nGN7Hba-36" style="edgeStyle=none;html=1;exitX=1;exitY=0.5;exitDx=0;exitDy=0;entryX=0.006;entryY=0.092;entryDx=0;entryDy=0;entryPerimeter=0;" parent="1" source="ZlgSIY0GweZU1nGN7Hba-25" target="ZlgSIY0GweZU1nGN7Hba-18" edge="1">
                    <mxGeometry relative="1" as="geometry"/>
                </mxCell>
                <mxCell id="ZlgSIY0GweZU1nGN7Hba-37" style="edgeStyle=none;html=1;exitX=1;exitY=0.5;exitDx=0;exitDy=0;entryX=0.75;entryY=0;entryDx=0;entryDy=0;" parent="1" source="ZlgSIY0GweZU1nGN7Hba-20" target="ZlgSIY0GweZU1nGN7Hba-21" edge="1">
                    <mxGeometry relative="1" as="geometry">
                        <Array as="points">
                            <mxPoint x="960" y="450"/>
                        </Array>
                    </mxGeometry>
                </mxCell>
                <mxCell id="ZlgSIY0GweZU1nGN7Hba-38" style="edgeStyle=none;html=1;exitX=1;exitY=0.5;exitDx=0;exitDy=0;entryX=0.999;entryY=0.161;entryDx=0;entryDy=0;entryPerimeter=0;" parent="1" source="ZlgSIY0GweZU1nGN7Hba-23" target="ZlgSIY0GweZU1nGN7Hba-15" edge="1">
                    <mxGeometry relative="1" as="geometry">
                        <Array as="points">
                            <mxPoint x="1070" y="680"/>
                        </Array>
                    </mxGeometry>
                </mxCell>
            </root>
        </mxGraphModel>
    </diagram>
</mxfile>